<svg version="1" xmlns="http://www.w3.org/2000/svg" width="338.667" height="338.667" viewBox="0 0 254.000000 254.000000"><path d="M65 10.3c-.3.3-2.3.7-4.5 1-11 1.5-27.2 9.8-37.1 18.9C4.5 47.5-3.8 78 3 105.1c3.4 13.8 10.2 25.8 22 39.1 5.5 6.1 6.3 7.6 7.6 13.5 2.1 10.3 9 17.2 18.6 18.8 3.3.6 3.8 1 3.8 3.3.1 7.3 7.5 16.2 15.2 18.3 2.4.6 4.8 1.3 5.5 1.4.6.2 1.9 3 2.8 6.2 2.1 7.2 8.3 13.7 14.7 15.3 2.4.6 4.8 1.3 5.5 1.5.6.2 1.8 2.8 2.7 5.9 2.8 9.7 10.2 15.6 20 16.2 9 .5 14.9-3.9 33.5-25.2 6.7-7.8 7.2-8.1 12.2-8.7 2.8-.4 6.5-1.4 8.2-2.5 4-2.2 9-9.5 10.8-15.6 1.1-3.8 1.8-4.6 3.7-4.6 2.9 0 9-2.5 11.5-4.8 3.3-2.9 6.6-8.9 7.3-13.1.6-3.8.9-4 5.5-5.1 8-2 12.2-5.8 16.7-15.3 2.2-4.6 6.5-12 9.5-16.4 8.9-13.1 12.9-26.4 12.9-42.8 0-5.5-.5-12-1.2-14.5s-1.4-5.2-1.5-6.2c-.7-3.4-5.4-14-8.6-19.5-3.9-6.4-13.7-16.7-20.4-21.3-6.1-4.2-15.5-8.4-23.6-10.6-9.8-2.6-29-2.4-39.7.4-8.4 2.3-18.7 6.7-25.5 10.9l-3.8 2.4-5.2-4.5c-9.2-7.7-20.1-13.2-32.3-16C85.7 10.3 66 9.4 65 10.3zm22.5 12.2c9.8 1.8 20.7 7.1 27.2 13l4.8 4.4-24.7 24.6C81.1 78 70 89.4 70 89.9c0 2 9.1 9.6 14.5 12.2 10.2 4.9 21.7 4.5 33.1-1.1 4.8-2.3 9.4-6.2 20.6-17.6l14.5-14.6 2.3 3.9c1.3 2.1 15.6 17.2 31.9 33.6 16.3 16.3 30.4 31.2 31.4 32.9 2.5 4.8 2.2 8.2-1.2 11.6-4 3.9-6.3 4.4-10.8 2.1-2.1-1-14.2-12.2-27-24.8-18-17.8-23.8-23-26.2-23.3-4.5-.7-5.4.3-4.7 5 .5 3.7 2.4 5.9 23 26.3 23.9 23.5 27.1 27.7 25.5 33.2-1.9 7-9.9 9.8-15.5 5.5-1.6-1.2-13.6-12.9-26.7-26.1-20.5-20.5-24.1-23.7-26-23.1-2.6.8-5.7 4.1-5.7 6.1 0 .8 11.2 12.7 25 26.5 27.3 27.3 28.8 29.4 25.6 35.6-3.3 6.3-10 7.3-17 2.4-2.1-1.5-7.5-5.2-11.9-8.2-7.1-4.8-8.2-6-9.3-9.9-2.1-7.2-9.1-13-17.6-14.6-3.2-.6-3.7-1.1-4.3-4.3-1.5-8.3-8.5-16-16-17.8-4.3-1-6.1-2.9-7.6-8.2-3.4-12-18.7-18.9-29.8-13.3-3.6 1.9-7.1 5.2-17.3 16.4l-4.4 4.8-5.1-5.3c-6.9-7.1-8.6-9.4-12.7-17C5.8 90.9 9.9 58.4 30.5 39.2c15.5-14.5 36.4-20.6 57-16.7zM198 30c26.3 8.9 43.1 31.4 43.9 59 .4 13.6-4.8 30.1-12.3 39.3l-2.2 2.8-37-37.1c-26.9-27-37.5-37-39.2-37-1.5 0-7 4.7-17.9 15.6C116.6 89.2 113 92 106.4 93.7c-6 1.5-18-.4-17.2-2.7.7-2.1 26.8-30.7 36-39.5 14.2-13.7 23.1-19.1 37.3-22.6 9.8-2.4 26.6-1.9 35.5 1.1zM77.1 134c3.6 3.7 3.7 4.1 2.6 7.2-1.2 3.3-14.8 18.3-19.8 21.8-4.1 3-7.4 3.1-11.1.6-4.1-2.7-6.1-6.8-5.3-10.6.7-3.2 17-20.5 20.8-22 5.1-2 8.8-1.2 12.8 3zm23.2 23.3c2.7 3.2 2.8 3.8 1.8 6.9-1.1 3.2-13.4 16.9-19.5 21.6-4.4 3.4-9.1 2.9-13.2-1.2-2.6-2.6-3.4-4.2-3.4-7.1 0-3.3 1-4.7 10.3-14 8.5-8.6 10.8-10.4 13.7-10.7 5-.5 7 .4 10.3 4.5zm20.4 20.2c1.3.9 2.3 2 2.3 2.5 0 1.4 0 1.7 1 4.9.8 2.7.3 3.6-4.4 8.8-8.2 9.3-17.4 17.3-19.7 17.3-3.2 0-8.8-3.8-9.5-6.4-1.1-4.7-1.1-6.2.3-8.9 1.7-3.4 14.2-16.1 18.4-18.6 3.4-2.1 8-1.9 11.6.4zm22.1 21.7c2.4 2.6 4.2 7 4.2 10.1 0 3.5-19.7 23.4-24 24.2-2.9.6-8.6-2.9-9.6-5.8-2.3-6.5-.7-10.1 8.4-19.3 11.7-11.7 16.5-13.9 21-9.2z"/></svg>